<svg viewBox="0 0 80 80" xmlns="http://www.w3.org/2000/svg">
<rect width="80" height="80" rx="18" fill="#0e1426"></rect>
<g transform="translate(8,7) scale(0.8)">
<rect x="8" y="71" width="16" height="9" rx="2" fill="#ffffff" opacity="0.2"></rect>
<rect x="8" y="59" width="16" height="9" rx="2" fill="#ffffff" opacity="0.5"></rect>
<rect x="8" y="47" width="16" height="9" rx="2" fill="#ffffff" opacity="0.5"></rect>
<rect x="32" y="71" width="16" height="9" rx="2" fill="#818cf8" opacity="0.35"></rect>
<rect x="32" y="59" width="16" height="9" rx="2" fill="#818cf8" opacity="1"></rect>
<rect x="32" y="47" width="16" height="9" rx="2" fill="#818cf8" opacity="1"></rect>
<rect x="32" y="35" width="16" height="9" rx="2" fill="#818cf8" opacity="1"></rect>
<rect x="56" y="71" width="16" height="9" rx="2" fill="#ffffff" opacity="0.35"></rect>
<rect x="56" y="59" width="16" height="9" rx="2" fill="#ffffff" opacity="1"></rect>
<rect x="56" y="47" width="16" height="9" rx="2" fill="#ffffff" opacity="1"></rect>
<rect x="56" y="35" width="16" height="9" rx="2" fill="#ffffff" opacity="1"></rect>
<rect x="56" y="23" width="16" height="9" rx="2" fill="#ffffff" opacity="1"></rect>
<circle cx="64" cy="8" r="12" fill="#ffffff" opacity="0.2"></circle>
<circle cx="64" cy="8" r="8" fill="#ffffff"></circle>
</g>
</svg>