<svg viewBox="0 0 340 96" xmlns="http://www.w3.org/2000/svg">

<g transform="translate(8,14) scale(0.8)">
<rect x="8" y="71" width="16" height="9" rx="2" fill="#0e1426" opacity="0.35"></rect>
<rect x="8" y="59" width="16" height="9" rx="2" fill="#0e1426" opacity="1"></rect>
<rect x="8" y="47" width="16" height="9" rx="2" fill="#0e1426" opacity="1"></rect>
<rect x="32" y="71" width="16" height="9" rx="2" fill="#4f46e5" opacity="0.35"></rect>
<rect x="32" y="59" width="16" height="9" rx="2" fill="#4f46e5" opacity="1"></rect>
<rect x="32" y="47" width="16" height="9" rx="2" fill="#4f46e5" opacity="1"></rect>
<rect x="32" y="35" width="16" height="9" rx="2" fill="#4f46e5" opacity="1"></rect>
<rect x="56" y="71" width="16" height="9" rx="2" fill="#818cf8" opacity="0.35"></rect>
<rect x="56" y="59" width="16" height="9" rx="2" fill="#818cf8" opacity="1"></rect>
<rect x="56" y="47" width="16" height="9" rx="2" fill="#818cf8" opacity="1"></rect>
<rect x="56" y="35" width="16" height="9" rx="2" fill="#818cf8" opacity="1"></rect>
<rect x="56" y="23" width="16" height="9" rx="2" fill="#818cf8" opacity="1"></rect>
<circle cx="64" cy="8" r="12" fill="#818cf8" opacity="0.25"></circle>
<circle cx="64" cy="8" r="8" fill="#818cf8"></circle>
</g>
<text x="82" y="64" font-family="Inter, system-ui, sans-serif" font-weight="800" font-size="52" fill="#0e1426">deal<tspan fill="#4f46e5">echo</tspan></text>
</svg>